<?xml version="1.0" standalone="no"?>
<!DOCTYPE svg PUBLIC "-//W3C//DTD SVG 20010904//EN"
 "http://www.w3.org/TR/2001/REC-SVG-20010904/DTD/svg10.dtd">
<svg version="1.0" xmlns="http://www.w3.org/2000/svg"
 width="1022.000000pt" height="1022.000000pt" viewBox="0 0 1022.000000 1022.000000"
 preserveAspectRatio="xMidYMid meet">
<metadata>
Created by potrace 1.11, written by Peter Selinger 2001-2013
</metadata>
<g transform="translate(0.000000,1022.000000) scale(0.100000,-0.100000)"
fill="#000000" stroke="none">
<path d="M1127 9111 c-6 -2 -14 -7 -17 -12 -3 -4 -5 -1505 -5 -3336 l0 -3328
673 -673 c511 -511 677 -671 686 -663 7 6 16 8 20 4 9 -10 146 -10 146 0 0 5
5 5 12 1 19 -12 158 -11 158 1 0 7 3 7 8 0 8 -12 92 -13 109 -2 6 4 14 4 17
-1 6 -10 72 -10 81 0 4 4 17 4 29 0 27 -9 47 -9 63 1 7 5 13 5 13 0 0 -4 29
-8 65 -8 36 0 65 4 65 8 0 5 6 5 12 1 19 -12 162 -11 170 1 5 7 8 6 8 -1 0
-12 80 -11 99 0 5 4 12 2 15 -2 3 -5 22 -7 43 -5 44 4 43 4 111 0 32 -2 52 1
52 7 0 7 3 8 8 1 8 -12 61 -13 79 -2 7 5 13 4 13 0 0 -5 18 -9 40 -8 22 0 40
4 40 8 0 5 5 5 12 1 19 -12 128 -11 128 1 0 7 3 7 8 0 8 -12 92 -13 109 -2 6
4 14 4 17 -1 6 -10 72 -10 81 0 4 4 17 4 29 0 27 -9 47 -9 64 1 6 5 12 5 12 0
0 -4 29 -8 65 -8 36 0 65 4 65 8 0 5 6 5 12 1 19 -12 162 -11 170 1 5 7 8 6 8
-1 0 -12 80 -11 99 0 5 4 12 2 15 -2 3 -5 22 -7 43 -5 44 4 43 4 111 0 32 -2
52 1 52 7 0 7 3 8 8 1 8 -12 142 -14 142 -2 0 5 5 5 12 1 19 -12 158 -11 158
1 0 7 3 7 8 0 8 -12 92 -13 109 -2 6 4 14 4 17 -1 6 -10 72 -10 81 0 4 4 17 4
29 0 27 -9 47 -9 64 1 6 5 12 5 12 0 0 -4 29 -8 65 -8 36 0 65 4 65 8 0 5 6 5
12 1 19 -12 162 -11 170 1 5 7 8 6 8 -1 0 -12 80 -11 99 0 5 4 12 2 15 -2 3
-5 22 -7 43 -5 44 4 43 4 111 0 32 -2 52 1 52 7 0 7 3 8 8 1 8 -12 61 -13 80
-2 6 5 12 4 12 0 0 -5 18 -9 40 -8 22 0 40 4 40 8 0 5 5 5 12 1 19 -12 128
-11 128 1 0 7 3 7 8 0 8 -12 92 -13 109 -2 6 4 14 4 17 -1 6 -10 72 -10 81 0
4 4 17 4 29 0 27 -9 47 -9 64 1 6 5 12 5 12 0 0 -4 29 -8 65 -8 36 0 65 4 65
8 0 5 6 5 12 1 19 -12 162 -11 170 1 5 7 8 6 8 -1 0 -12 80 -11 99 0 5 4 12 2
15 -2 3 -5 22 -7 43 -5 44 4 43 4 111 0 32 -2 52 1 52 7 0 7 3 8 8 1 8 -12
142 -14 142 -2 0 5 5 5 12 1 19 -12 158 -11 158 1 0 7 3 7 8 0 8 -12 92 -13
109 -2 6 4 14 4 17 -1 6 -10 72 -10 81 0 4 4 17 4 29 0 27 -9 47 -9 64 1 6 5
12 5 12 0 0 -4 29 -8 65 -8 36 0 65 4 65 8 0 5 6 5 12 1 19 -12 162 -11 170 1
5 7 8 6 8 -1 0 -12 80 -11 99 0 5 4 12 2 15 -2 3 -5 22 -7 43 -5 44 4 43 4
111 0 32 -2 52 1 52 7 0 7 3 8 8 1 9 -13 105 -13 114 0 5 7 8 7 8 0 0 -13 90
-11 99 3 3 5 6 1508 6 3339 l0 3328 -669 669 -669 669 -3318 1 c-1826 1 -3325
-1 -3332 -3z"/>
</g>
</svg>
